<?xml version="1.0" encoding="UTF-8" standalone="no"?>
<!DOCTYPE svg PUBLIC "-//W3C//DTD SVG 1.1//EN"
 "http://www.w3.org/Graphics/SVG/1.1/DTD/svg11.dtd">
<!-- Generated by graphviz version 2.43.0 (0)
 -->
<!-- Title: snakemake_dag Pages: 1 -->
<svg width="940pt" height="116pt"
 viewBox="0.00 0.00 940.00 116.00" xmlns="http://www.w3.org/2000/svg" xmlns:xlink="http://www.w3.org/1999/xlink">
<g id="graph0" class="graph" transform="scale(1 1) rotate(0) translate(4 112)">
<title>snakemake_dag</title>
<polygon fill="white" stroke="transparent" points="-4,4 -4,-112 936,-112 936,4 -4,4"/>
<!-- 0 -->
<g id="node1" class="node">
<title>0</title>
<path fill="none" stroke="#56d8a9" stroke-width="2" d="M480.5,-36C480.5,-36 450.5,-36 450.5,-36 444.5,-36 438.5,-30 438.5,-24 438.5,-24 438.5,-12 438.5,-12 438.5,-6 444.5,0 450.5,0 450.5,0 480.5,0 480.5,0 486.5,0 492.5,-6 492.5,-12 492.5,-12 492.5,-24 492.5,-24 492.5,-30 486.5,-36 480.5,-36"/>
<text text-anchor="middle" x="465.5" y="-15.5" font-family="sans" font-size="10.00">all</text>
</g>
<!-- 1 -->
<g id="node2" class="node">
<title>1</title>
<path fill="none" stroke="#afd856" stroke-width="2" d="M65,-108C65,-108 12,-108 12,-108 6,-108 0,-102 0,-96 0,-96 0,-84 0,-84 0,-78 6,-72 12,-72 12,-72 65,-72 65,-72 71,-72 77,-78 77,-84 77,-84 77,-96 77,-96 77,-102 71,-108 65,-108"/>
<text text-anchor="middle" x="38.5" y="-93" font-family="sans" font-size="10.00">bwa_mem</text>
<text text-anchor="middle" x="38.5" y="-82" font-family="sans" font-size="10.00">sample: S01</text>
</g>
<!-- 1&#45;&gt;0 -->
<g id="edge1" class="edge">
<title>1&#45;&gt;0</title>
<path fill="none" stroke="grey" stroke-width="2" d="M77.03,-74.34C79.88,-73.48 82.72,-72.69 85.5,-72 208.86,-41.44 359.41,-26.99 428.11,-21.62"/>
<polygon fill="grey" stroke="grey" stroke-width="2" points="428.71,-25.08 438.41,-20.83 428.18,-18.1 428.71,-25.08"/>
</g>
<!-- 2 -->
<g id="node3" class="node">
<title>2</title>
<path fill="none" stroke="#afd856" stroke-width="2" d="M160,-108C160,-108 107,-108 107,-108 101,-108 95,-102 95,-96 95,-96 95,-84 95,-84 95,-78 101,-72 107,-72 107,-72 160,-72 160,-72 166,-72 172,-78 172,-84 172,-84 172,-96 172,-96 172,-102 166,-108 160,-108"/>
<text text-anchor="middle" x="133.5" y="-93" font-family="sans" font-size="10.00">bwa_mem</text>
<text text-anchor="middle" x="133.5" y="-82" font-family="sans" font-size="10.00">sample: S02</text>
</g>
<!-- 2&#45;&gt;0 -->
<g id="edge2" class="edge">
<title>2&#45;&gt;0</title>
<path fill="none" stroke="grey" stroke-width="2" d="M172.07,-74.48C174.91,-73.59 177.74,-72.75 180.5,-72 268.1,-48.18 373.74,-31.62 428.51,-23.91"/>
<polygon fill="grey" stroke="grey" stroke-width="2" points="429.03,-27.37 438.45,-22.53 428.07,-20.44 429.03,-27.37"/>
</g>
<!-- 3 -->
<g id="node4" class="node">
<title>3</title>
<path fill="none" stroke="#afd856" stroke-width="2" d="M255,-108C255,-108 202,-108 202,-108 196,-108 190,-102 190,-96 190,-96 190,-84 190,-84 190,-78 196,-72 202,-72 202,-72 255,-72 255,-72 261,-72 267,-78 267,-84 267,-84 267,-96 267,-96 267,-102 261,-108 255,-108"/>
<text text-anchor="middle" x="228.5" y="-93" font-family="sans" font-size="10.00">bwa_mem</text>
<text text-anchor="middle" x="228.5" y="-82" font-family="sans" font-size="10.00">sample: S03</text>
</g>
<!-- 3&#45;&gt;0 -->
<g id="edge3" class="edge">
<title>3&#45;&gt;0</title>
<path fill="none" stroke="grey" stroke-width="2" d="M267.15,-74.76C269.97,-73.8 272.77,-72.87 275.5,-72 328.2,-55.15 390.06,-38.46 428.52,-28.44"/>
<polygon fill="grey" stroke="grey" stroke-width="2" points="429.45,-31.81 438.25,-25.91 427.69,-25.03 429.45,-31.81"/>
</g>
<!-- 4 -->
<g id="node5" class="node">
<title>4</title>
<path fill="none" stroke="#afd856" stroke-width="2" d="M350,-108C350,-108 297,-108 297,-108 291,-108 285,-102 285,-96 285,-96 285,-84 285,-84 285,-78 291,-72 297,-72 297,-72 350,-72 350,-72 356,-72 362,-78 362,-84 362,-84 362,-96 362,-96 362,-102 356,-108 350,-108"/>
<text text-anchor="middle" x="323.5" y="-93" font-family="sans" font-size="10.00">bwa_mem</text>
<text text-anchor="middle" x="323.5" y="-82" font-family="sans" font-size="10.00">sample: S04</text>
</g>
<!-- 4&#45;&gt;0 -->
<g id="edge4" class="edge">
<title>4&#45;&gt;0</title>
<path fill="none" stroke="grey" stroke-width="2" d="M358.24,-71.88C379.69,-61.3 407.19,-47.74 428.97,-37.01"/>
<polygon fill="grey" stroke="grey" stroke-width="2" points="430.81,-40 438.23,-32.44 427.71,-33.73 430.81,-40"/>
</g>
<!-- 5 -->
<g id="node6" class="node">
<title>5</title>
<path fill="none" stroke="#afd856" stroke-width="2" d="M445,-108C445,-108 392,-108 392,-108 386,-108 380,-102 380,-96 380,-96 380,-84 380,-84 380,-78 386,-72 392,-72 392,-72 445,-72 445,-72 451,-72 457,-78 457,-84 457,-84 457,-96 457,-96 457,-102 451,-108 445,-108"/>
<text text-anchor="middle" x="418.5" y="-93" font-family="sans" font-size="10.00">bwa_mem</text>
<text text-anchor="middle" x="418.5" y="-82" font-family="sans" font-size="10.00">sample: S05</text>
</g>
<!-- 5&#45;&gt;0 -->
<g id="edge5" class="edge">
<title>5&#45;&gt;0</title>
<path fill="none" stroke="grey" stroke-width="2" d="M430.12,-71.7C435.64,-63.47 442.35,-53.48 448.43,-44.42"/>
<polygon fill="grey" stroke="grey" stroke-width="2" points="451.35,-46.36 454.02,-36.1 445.54,-42.46 451.35,-46.36"/>
</g>
<!-- 6 -->
<g id="node7" class="node">
<title>6</title>
<path fill="none" stroke="#afd856" stroke-width="2" d="M540,-108C540,-108 487,-108 487,-108 481,-108 475,-102 475,-96 475,-96 475,-84 475,-84 475,-78 481,-72 487,-72 487,-72 540,-72 540,-72 546,-72 552,-78 552,-84 552,-84 552,-96 552,-96 552,-102 546,-108 540,-108"/>
<text text-anchor="middle" x="513.5" y="-93" font-family="sans" font-size="10.00">bwa_mem</text>
<text text-anchor="middle" x="513.5" y="-82" font-family="sans" font-size="10.00">sample: S06</text>
</g>
<!-- 6&#45;&gt;0 -->
<g id="edge6" class="edge">
<title>6&#45;&gt;0</title>
<path fill="none" stroke="grey" stroke-width="2" d="M501.63,-71.7C496,-63.47 489.15,-53.48 482.93,-44.42"/>
<polygon fill="grey" stroke="grey" stroke-width="2" points="485.77,-42.37 477.23,-36.1 480,-46.33 485.77,-42.37"/>
</g>
<!-- 7 -->
<g id="node8" class="node">
<title>7</title>
<path fill="none" stroke="#afd856" stroke-width="2" d="M635,-108C635,-108 582,-108 582,-108 576,-108 570,-102 570,-96 570,-96 570,-84 570,-84 570,-78 576,-72 582,-72 582,-72 635,-72 635,-72 641,-72 647,-78 647,-84 647,-84 647,-96 647,-96 647,-102 641,-108 635,-108"/>
<text text-anchor="middle" x="608.5" y="-93" font-family="sans" font-size="10.00">bwa_mem</text>
<text text-anchor="middle" x="608.5" y="-82" font-family="sans" font-size="10.00">sample: S07</text>
</g>
<!-- 7&#45;&gt;0 -->
<g id="edge7" class="edge">
<title>7&#45;&gt;0</title>
<path fill="none" stroke="grey" stroke-width="2" d="M573.52,-71.88C551.67,-61.18 523.6,-47.44 501.55,-36.65"/>
<polygon fill="grey" stroke="grey" stroke-width="2" points="503.03,-33.47 492.51,-32.22 499.95,-39.76 503.03,-33.47"/>
</g>
<!-- 8 -->
<g id="node9" class="node">
<title>8</title>
<path fill="none" stroke="#afd856" stroke-width="2" d="M730,-108C730,-108 677,-108 677,-108 671,-108 665,-102 665,-96 665,-96 665,-84 665,-84 665,-78 671,-72 677,-72 677,-72 730,-72 730,-72 736,-72 742,-78 742,-84 742,-84 742,-96 742,-96 742,-102 736,-108 730,-108"/>
<text text-anchor="middle" x="703.5" y="-93" font-family="sans" font-size="10.00">bwa_mem</text>
<text text-anchor="middle" x="703.5" y="-82" font-family="sans" font-size="10.00">sample: S08</text>
</g>
<!-- 8&#45;&gt;0 -->
<g id="edge8" class="edge">
<title>8&#45;&gt;0</title>
<path fill="none" stroke="grey" stroke-width="2" d="M664.85,-74.76C662.03,-73.8 659.23,-72.87 656.5,-72 603.38,-55.05 540.99,-38.33 502.35,-28.33"/>
<polygon fill="grey" stroke="grey" stroke-width="2" points="503.13,-24.92 492.58,-25.82 501.39,-31.7 503.13,-24.92"/>
</g>
<!-- 9 -->
<g id="node10" class="node">
<title>9</title>
<path fill="none" stroke="#afd856" stroke-width="2" d="M825,-108C825,-108 772,-108 772,-108 766,-108 760,-102 760,-96 760,-96 760,-84 760,-84 760,-78 766,-72 772,-72 772,-72 825,-72 825,-72 831,-72 837,-78 837,-84 837,-84 837,-96 837,-96 837,-102 831,-108 825,-108"/>
<text text-anchor="middle" x="798.5" y="-93" font-family="sans" font-size="10.00">bwa_mem</text>
<text text-anchor="middle" x="798.5" y="-82" font-family="sans" font-size="10.00">sample: S09</text>
</g>
<!-- 9&#45;&gt;0 -->
<g id="edge9" class="edge">
<title>9&#45;&gt;0</title>
<path fill="none" stroke="grey" stroke-width="2" d="M759.93,-74.48C757.1,-73.59 754.26,-72.75 751.5,-72 663.6,-48.13 557.58,-31.59 502.62,-23.89"/>
<polygon fill="grey" stroke="grey" stroke-width="2" points="503.03,-20.42 492.64,-22.52 502.07,-27.35 503.03,-20.42"/>
</g>
<!-- 10 -->
<g id="node11" class="node">
<title>10</title>
<path fill="none" stroke="#afd856" stroke-width="2" d="M920,-108C920,-108 867,-108 867,-108 861,-108 855,-102 855,-96 855,-96 855,-84 855,-84 855,-78 861,-72 867,-72 867,-72 920,-72 920,-72 926,-72 932,-78 932,-84 932,-84 932,-96 932,-96 932,-102 926,-108 920,-108"/>
<text text-anchor="middle" x="893.5" y="-93" font-family="sans" font-size="10.00">bwa_mem</text>
<text text-anchor="middle" x="893.5" y="-82" font-family="sans" font-size="10.00">sample: S10</text>
</g>
<!-- 10&#45;&gt;0 -->
<g id="edge10" class="edge">
<title>10&#45;&gt;0</title>
<path fill="none" stroke="grey" stroke-width="2" d="M854.97,-74.34C852.12,-73.48 849.28,-72.69 846.5,-72 722.82,-41.39 571.87,-26.97 502.99,-21.61"/>
<polygon fill="grey" stroke="grey" stroke-width="2" points="502.89,-18.09 492.66,-20.82 502.37,-25.07 502.89,-18.09"/>
</g>
</g>
</svg>
