<?xml version="1.0" encoding="UTF-8" standalone="no"?>
<!DOCTYPE svg PUBLIC "-//W3C//DTD SVG 1.1//EN"
 "http://www.w3.org/Graphics/SVG/1.1/DTD/svg11.dtd">
<!-- Generated by graphviz version 2.43.0 (0)
 -->
<!-- Title: snakemake_dag Pages: 1 -->
<svg width="708pt" height="404pt"
 viewBox="0.00 0.00 708.00 404.00" xmlns="http://www.w3.org/2000/svg" xmlns:xlink="http://www.w3.org/1999/xlink">
<g id="graph0" class="graph" transform="scale(1 1) rotate(0) translate(4 400)">
<title>snakemake_dag</title>
<polygon fill="white" stroke="transparent" points="-4,4 -4,-400 704,-400 704,4 -4,4"/>
<!-- 0 -->
<g id="node1" class="node">
<title>0</title>
<path fill="none" stroke="#56d8c9" stroke-width="2" d="M330.5,-36C330.5,-36 300.5,-36 300.5,-36 294.5,-36 288.5,-30 288.5,-24 288.5,-24 288.5,-12 288.5,-12 288.5,-6 294.5,0 300.5,0 300.5,0 330.5,0 330.5,0 336.5,0 342.5,-6 342.5,-12 342.5,-12 342.5,-24 342.5,-24 342.5,-30 336.5,-36 330.5,-36"/>
<text text-anchor="middle" x="315.5" y="-15.5" font-family="sans" font-size="10.00">all</text>
</g>
<!-- 1 -->
<g id="node2" class="node">
<title>1</title>
<path fill="none" stroke="#c6d856" stroke-width="2" d="M343,-180C343,-180 288,-180 288,-180 282,-180 276,-174 276,-168 276,-168 276,-156 276,-156 276,-150 282,-144 288,-144 288,-144 343,-144 343,-144 349,-144 355,-150 355,-156 355,-156 355,-168 355,-168 355,-174 349,-180 343,-180"/>
<text text-anchor="middle" x="315.5" y="-159.5" font-family="sans" font-size="10.00">call_variants</text>
</g>
<!-- 1&#45;&gt;0 -->
<g id="edge1" class="edge">
<title>1&#45;&gt;0</title>
<path fill="none" stroke="grey" stroke-width="2" d="M309.26,-143.59C305.93,-133.37 302.18,-120.12 300.5,-108 298.3,-92.15 298.3,-87.85 300.5,-72 301.68,-63.48 303.89,-54.39 306.25,-46.2"/>
<polygon fill="grey" stroke="grey" stroke-width="2" points="309.67,-46.99 309.26,-36.41 302.98,-44.94 309.67,-46.99"/>
</g>
<!-- 14 -->
<g id="node15" class="node">
<title>14</title>
<path fill="none" stroke="#78d856" stroke-width="2" d="M377.5,-108C377.5,-108 321.5,-108 321.5,-108 315.5,-108 309.5,-102 309.5,-96 309.5,-96 309.5,-84 309.5,-84 309.5,-78 315.5,-72 321.5,-72 321.5,-72 377.5,-72 377.5,-72 383.5,-72 389.5,-78 389.5,-84 389.5,-84 389.5,-96 389.5,-96 389.5,-102 383.5,-108 377.5,-108"/>
<text text-anchor="middle" x="349.5" y="-87.5" font-family="sans" font-size="10.00">plot_variants</text>
</g>
<!-- 1&#45;&gt;14 -->
<g id="edge23" class="edge">
<title>1&#45;&gt;14</title>
<path fill="none" stroke="grey" stroke-width="2" d="M323.9,-143.7C327.77,-135.73 332.45,-126.1 336.74,-117.26"/>
<polygon fill="grey" stroke="grey" stroke-width="2" points="339.97,-118.63 341.19,-108.1 333.67,-115.57 339.97,-118.63"/>
</g>
<!-- 2 -->
<g id="node3" class="node">
<title>2</title>
<path fill="none" stroke="#56d87b" stroke-width="2" d="M337.5,-252C337.5,-252 293.5,-252 293.5,-252 287.5,-252 281.5,-246 281.5,-240 281.5,-240 281.5,-228 281.5,-228 281.5,-222 287.5,-216 293.5,-216 293.5,-216 337.5,-216 337.5,-216 343.5,-216 349.5,-222 349.5,-228 349.5,-228 349.5,-240 349.5,-240 349.5,-246 343.5,-252 337.5,-252"/>
<text text-anchor="middle" x="315.5" y="-231.5" font-family="sans" font-size="10.00">bwa_mem</text>
</g>
<!-- 2&#45;&gt;1 -->
<g id="edge3" class="edge">
<title>2&#45;&gt;1</title>
<path fill="none" stroke="grey" stroke-width="2" d="M315.5,-215.7C315.5,-207.98 315.5,-198.71 315.5,-190.11"/>
<polygon fill="grey" stroke="grey" stroke-width="2" points="319,-190.1 315.5,-180.1 312,-190.1 319,-190.1"/>
</g>
<!-- 3 -->
<g id="node4" class="node">
<title>3</title>
<path fill="none" stroke="#d85656" stroke-width="2" d="M450,-324C450,-324 337,-324 337,-324 331,-324 325,-318 325,-312 325,-312 325,-300 325,-300 325,-294 331,-288 337,-288 337,-288 450,-288 450,-288 456,-288 462,-294 462,-300 462,-300 462,-312 462,-312 462,-318 456,-324 450,-324"/>
<text text-anchor="middle" x="393.5" y="-309" font-family="sans" font-size="10.00">trim_galore</text>
<text text-anchor="middle" x="393.5" y="-298" font-family="sans" font-size="10.00">sample: unkown_sample</text>
</g>
<!-- 3&#45;&gt;2 -->
<g id="edge8" class="edge">
<title>3&#45;&gt;2</title>
<path fill="none" stroke="grey" stroke-width="2" d="M374.22,-287.7C364.58,-279.05 352.77,-268.45 342.27,-259.03"/>
<polygon fill="grey" stroke="grey" stroke-width="2" points="344.34,-256.18 334.56,-252.1 339.66,-261.39 344.34,-256.18"/>
</g>
<!-- 4 -->
<g id="node5" class="node">
<title>4</title>
<path fill="none" stroke="#56a2d8" stroke-width="2" d="M435,-396C435,-396 352,-396 352,-396 346,-396 340,-390 340,-384 340,-384 340,-372 340,-372 340,-366 346,-360 352,-360 352,-360 435,-360 435,-360 441,-360 447,-366 447,-372 447,-372 447,-384 447,-384 447,-390 441,-396 435,-396"/>
<text text-anchor="middle" x="393.5" y="-375.5" font-family="sans" font-size="10.00">demultiplex_sabre</text>
</g>
<!-- 4&#45;&gt;3 -->
<g id="edge10" class="edge">
<title>4&#45;&gt;3</title>
<path fill="none" stroke="grey" stroke-width="2" d="M393.5,-359.7C393.5,-351.98 393.5,-342.71 393.5,-334.11"/>
<polygon fill="grey" stroke="grey" stroke-width="2" points="397,-334.1 393.5,-324.1 390,-334.1 397,-334.1"/>
</g>
<!-- 7 -->
<g id="node8" class="node">
<title>7</title>
<path fill="none" stroke="#d85656" stroke-width="2" d="M569,-324C569,-324 492,-324 492,-324 486,-324 480,-318 480,-312 480,-312 480,-300 480,-300 480,-294 486,-288 492,-288 492,-288 569,-288 569,-288 575,-288 581,-294 581,-300 581,-300 581,-312 581,-312 581,-318 575,-324 569,-324"/>
<text text-anchor="middle" x="530.5" y="-309" font-family="sans" font-size="10.00">trim_galore</text>
<text text-anchor="middle" x="530.5" y="-298" font-family="sans" font-size="10.00">sample: Sample1</text>
</g>
<!-- 4&#45;&gt;7 -->
<g id="edge13" class="edge">
<title>4&#45;&gt;7</title>
<path fill="none" stroke="grey" stroke-width="2" d="M427.01,-359.88C445.34,-350.51 468.24,-338.81 487.83,-328.8"/>
<polygon fill="grey" stroke="grey" stroke-width="2" points="489.54,-331.86 496.86,-324.19 486.36,-325.62 489.54,-331.86"/>
</g>
<!-- 9 -->
<g id="node10" class="node">
<title>9</title>
<path fill="none" stroke="#d85656" stroke-width="2" d="M688,-324C688,-324 611,-324 611,-324 605,-324 599,-318 599,-312 599,-312 599,-300 599,-300 599,-294 605,-288 611,-288 611,-288 688,-288 688,-288 694,-288 700,-294 700,-300 700,-300 700,-312 700,-312 700,-318 694,-324 688,-324"/>
<text text-anchor="middle" x="649.5" y="-309" font-family="sans" font-size="10.00">trim_galore</text>
<text text-anchor="middle" x="649.5" y="-298" font-family="sans" font-size="10.00">sample: Sample2</text>
</g>
<!-- 4&#45;&gt;9 -->
<g id="edge16" class="edge">
<title>4&#45;&gt;9</title>
<path fill="none" stroke="grey" stroke-width="2" d="M447.08,-362.86C484.49,-352.92 535.84,-339.16 589.33,-324.31"/>
<polygon fill="grey" stroke="grey" stroke-width="2" points="590.29,-327.67 598.99,-321.62 588.41,-320.93 590.29,-327.67"/>
</g>
<!-- 11 -->
<g id="node12" class="node">
<title>11</title>
<path fill="none" stroke="#d85656" stroke-width="2" d="M89,-324C89,-324 12,-324 12,-324 6,-324 0,-318 0,-312 0,-312 0,-300 0,-300 0,-294 6,-288 12,-288 12,-288 89,-288 89,-288 95,-288 101,-294 101,-300 101,-300 101,-312 101,-312 101,-318 95,-324 89,-324"/>
<text text-anchor="middle" x="50.5" y="-309" font-family="sans" font-size="10.00">trim_galore</text>
<text text-anchor="middle" x="50.5" y="-298" font-family="sans" font-size="10.00">sample: Sample3</text>
</g>
<!-- 4&#45;&gt;11 -->
<g id="edge19" class="edge">
<title>4&#45;&gt;11</title>
<path fill="none" stroke="grey" stroke-width="2" d="M340,-368.47C284.98,-359.37 196.68,-343.83 111.04,-324.01"/>
<polygon fill="grey" stroke="grey" stroke-width="2" points="111.69,-320.57 101.15,-321.7 110.1,-327.39 111.69,-320.57"/>
</g>
<!-- 13 -->
<g id="node14" class="node">
<title>13</title>
<path fill="none" stroke="#d85656" stroke-width="2" d="M208,-324C208,-324 131,-324 131,-324 125,-324 119,-318 119,-312 119,-312 119,-300 119,-300 119,-294 125,-288 131,-288 131,-288 208,-288 208,-288 214,-288 220,-294 220,-300 220,-300 220,-312 220,-312 220,-318 214,-324 208,-324"/>
<text text-anchor="middle" x="169.5" y="-309" font-family="sans" font-size="10.00">trim_galore</text>
<text text-anchor="middle" x="169.5" y="-298" font-family="sans" font-size="10.00">sample: Sample4</text>
</g>
<!-- 4&#45;&gt;13 -->
<g id="edge22" class="edge">
<title>4&#45;&gt;13</title>
<path fill="none" stroke="grey" stroke-width="2" d="M339.85,-360.23C306.74,-349.89 264.21,-336.6 229.92,-325.88"/>
<polygon fill="grey" stroke="grey" stroke-width="2" points="230.62,-322.43 220.03,-322.79 228.53,-329.11 230.62,-322.43"/>
</g>
<!-- 5 -->
<g id="node6" class="node">
<title>5</title>
<path fill="none" stroke="#d8a456" stroke-width="2" d="M295,-324C295,-324 250,-324 250,-324 244,-324 238,-318 238,-312 238,-312 238,-300 238,-300 238,-294 244,-288 250,-288 250,-288 295,-288 295,-288 301,-288 307,-294 307,-300 307,-300 307,-312 307,-312 307,-318 301,-324 295,-324"/>
<text text-anchor="middle" x="272.5" y="-303.5" font-family="sans" font-size="10.00">bwa_index</text>
</g>
<!-- 5&#45;&gt;2 -->
<g id="edge9" class="edge">
<title>5&#45;&gt;2</title>
<path fill="none" stroke="grey" stroke-width="2" d="M283.13,-287.7C288.13,-279.56 294.19,-269.69 299.71,-260.7"/>
<polygon fill="grey" stroke="grey" stroke-width="2" points="302.74,-262.46 304.99,-252.1 296.78,-258.79 302.74,-262.46"/>
</g>
<!-- 6 -->
<g id="node7" class="node">
<title>6</title>
<path fill="none" stroke="#56d87b" stroke-width="2" d="M423.5,-252C423.5,-252 379.5,-252 379.5,-252 373.5,-252 367.5,-246 367.5,-240 367.5,-240 367.5,-228 367.5,-228 367.5,-222 373.5,-216 379.5,-216 379.5,-216 423.5,-216 423.5,-216 429.5,-216 435.5,-222 435.5,-228 435.5,-228 435.5,-240 435.5,-240 435.5,-246 429.5,-252 423.5,-252"/>
<text text-anchor="middle" x="401.5" y="-231.5" font-family="sans" font-size="10.00">bwa_mem</text>
</g>
<!-- 5&#45;&gt;6 -->
<g id="edge12" class="edge">
<title>5&#45;&gt;6</title>
<path fill="none" stroke="grey" stroke-width="2" d="M304.06,-287.88C321.16,-278.6 342.48,-267.03 360.82,-257.08"/>
<polygon fill="grey" stroke="grey" stroke-width="2" points="362.7,-260.04 369.82,-252.19 359.36,-253.88 362.7,-260.04"/>
</g>
<!-- 8 -->
<g id="node9" class="node">
<title>8</title>
<path fill="none" stroke="#56d87b" stroke-width="2" d="M509.5,-252C509.5,-252 465.5,-252 465.5,-252 459.5,-252 453.5,-246 453.5,-240 453.5,-240 453.5,-228 453.5,-228 453.5,-222 459.5,-216 465.5,-216 465.5,-216 509.5,-216 509.5,-216 515.5,-216 521.5,-222 521.5,-228 521.5,-228 521.5,-240 521.5,-240 521.5,-246 515.5,-252 509.5,-252"/>
<text text-anchor="middle" x="487.5" y="-231.5" font-family="sans" font-size="10.00">bwa_mem</text>
</g>
<!-- 5&#45;&gt;8 -->
<g id="edge15" class="edge">
<title>5&#45;&gt;8</title>
<path fill="none" stroke="grey" stroke-width="2" d="M307.46,-291.15C310.5,-290.05 313.55,-288.98 316.5,-288 369.72,-270.28 386.78,-270.78 443.84,-252.04"/>
<polygon fill="grey" stroke="grey" stroke-width="2" points="444.97,-255.36 453.35,-248.87 442.76,-248.72 444.97,-255.36"/>
</g>
<!-- 10 -->
<g id="node11" class="node">
<title>10</title>
<path fill="none" stroke="#56d87b" stroke-width="2" d="M165.5,-252C165.5,-252 121.5,-252 121.5,-252 115.5,-252 109.5,-246 109.5,-240 109.5,-240 109.5,-228 109.5,-228 109.5,-222 115.5,-216 121.5,-216 121.5,-216 165.5,-216 165.5,-216 171.5,-216 177.5,-222 177.5,-228 177.5,-228 177.5,-240 177.5,-240 177.5,-246 171.5,-252 165.5,-252"/>
<text text-anchor="middle" x="143.5" y="-231.5" font-family="sans" font-size="10.00">bwa_mem</text>
</g>
<!-- 5&#45;&gt;10 -->
<g id="edge18" class="edge">
<title>5&#45;&gt;10</title>
<path fill="none" stroke="grey" stroke-width="2" d="M240.94,-287.88C223.84,-278.6 202.52,-267.03 184.18,-257.08"/>
<polygon fill="grey" stroke="grey" stroke-width="2" points="185.64,-253.88 175.18,-252.19 182.3,-260.04 185.64,-253.88"/>
</g>
<!-- 12 -->
<g id="node13" class="node">
<title>12</title>
<path fill="none" stroke="#56d87b" stroke-width="2" d="M251.5,-252C251.5,-252 207.5,-252 207.5,-252 201.5,-252 195.5,-246 195.5,-240 195.5,-240 195.5,-228 195.5,-228 195.5,-222 201.5,-216 207.5,-216 207.5,-216 251.5,-216 251.5,-216 257.5,-216 263.5,-222 263.5,-228 263.5,-228 263.5,-240 263.5,-240 263.5,-246 257.5,-252 251.5,-252"/>
<text text-anchor="middle" x="229.5" y="-231.5" font-family="sans" font-size="10.00">bwa_mem</text>
</g>
<!-- 5&#45;&gt;12 -->
<g id="edge21" class="edge">
<title>5&#45;&gt;12</title>
<path fill="none" stroke="grey" stroke-width="2" d="M261.87,-287.7C256.87,-279.56 250.81,-269.69 245.29,-260.7"/>
<polygon fill="grey" stroke="grey" stroke-width="2" points="248.22,-258.79 240.01,-252.1 242.26,-262.46 248.22,-258.79"/>
</g>
<!-- 6&#45;&gt;1 -->
<g id="edge4" class="edge">
<title>6&#45;&gt;1</title>
<path fill="none" stroke="grey" stroke-width="2" d="M380.24,-215.7C369.41,-206.88 356.08,-196.03 344.34,-186.47"/>
<polygon fill="grey" stroke="grey" stroke-width="2" points="346.48,-183.7 336.51,-180.1 342.06,-189.13 346.48,-183.7"/>
</g>
<!-- 7&#45;&gt;6 -->
<g id="edge11" class="edge">
<title>7&#45;&gt;6</title>
<path fill="none" stroke="grey" stroke-width="2" d="M498.94,-287.88C481.84,-278.6 460.52,-267.03 442.18,-257.08"/>
<polygon fill="grey" stroke="grey" stroke-width="2" points="443.64,-253.88 433.18,-252.19 440.3,-260.04 443.64,-253.88"/>
</g>
<!-- 8&#45;&gt;1 -->
<g id="edge5" class="edge">
<title>8&#45;&gt;1</title>
<path fill="none" stroke="grey" stroke-width="2" d="M453.11,-219C427.74,-208.68 392.87,-194.49 364.58,-182.97"/>
<polygon fill="grey" stroke="grey" stroke-width="2" points="365.84,-179.71 355.26,-179.18 363.2,-186.19 365.84,-179.71"/>
</g>
<!-- 9&#45;&gt;8 -->
<g id="edge14" class="edge">
<title>9&#45;&gt;8</title>
<path fill="none" stroke="grey" stroke-width="2" d="M609.87,-287.88C585.97,-277.55 555.51,-264.38 530.95,-253.77"/>
<polygon fill="grey" stroke="grey" stroke-width="2" points="532.08,-250.45 521.51,-249.7 529.31,-256.88 532.08,-250.45"/>
</g>
<!-- 10&#45;&gt;1 -->
<g id="edge6" class="edge">
<title>10&#45;&gt;1</title>
<path fill="none" stroke="grey" stroke-width="2" d="M177.89,-219C203.26,-208.68 238.13,-194.49 266.42,-182.97"/>
<polygon fill="grey" stroke="grey" stroke-width="2" points="267.8,-186.19 275.74,-179.18 265.16,-179.71 267.8,-186.19"/>
</g>
<!-- 11&#45;&gt;10 -->
<g id="edge17" class="edge">
<title>11&#45;&gt;10</title>
<path fill="none" stroke="grey" stroke-width="2" d="M73.49,-287.7C85.31,-278.8 99.89,-267.82 112.68,-258.2"/>
<polygon fill="grey" stroke="grey" stroke-width="2" points="114.89,-260.91 120.78,-252.1 110.68,-255.32 114.89,-260.91"/>
</g>
<!-- 12&#45;&gt;1 -->
<g id="edge7" class="edge">
<title>12&#45;&gt;1</title>
<path fill="none" stroke="grey" stroke-width="2" d="M250.76,-215.7C261.59,-206.88 274.92,-196.03 286.66,-186.47"/>
<polygon fill="grey" stroke="grey" stroke-width="2" points="288.94,-189.13 294.49,-180.1 284.52,-183.7 288.94,-189.13"/>
</g>
<!-- 13&#45;&gt;12 -->
<g id="edge20" class="edge">
<title>13&#45;&gt;12</title>
<path fill="none" stroke="grey" stroke-width="2" d="M184.33,-287.7C191.52,-279.3 200.3,-269.07 208.19,-259.86"/>
<polygon fill="grey" stroke="grey" stroke-width="2" points="210.99,-261.97 214.84,-252.1 205.67,-257.42 210.99,-261.97"/>
</g>
<!-- 14&#45;&gt;0 -->
<g id="edge2" class="edge">
<title>14&#45;&gt;0</title>
<path fill="none" stroke="grey" stroke-width="2" d="M341.1,-71.7C337.23,-63.73 332.55,-54.1 328.26,-45.26"/>
<polygon fill="grey" stroke="grey" stroke-width="2" points="331.33,-43.57 323.81,-36.1 325.03,-46.63 331.33,-43.57"/>
</g>
</g>
</svg>
