<?xml version="1.0" encoding="UTF-8" standalone="no"?>
<!DOCTYPE svg PUBLIC "-//W3C//DTD SVG 1.1//EN"
 "http://www.w3.org/Graphics/SVG/1.1/DTD/svg11.dtd">
<!-- Generated by graphviz version 2.43.0 (0)
 -->
<!-- Title: snakemake_dag Pages: 1 -->
<svg width="621pt" height="188pt"
 viewBox="0.00 0.00 621.00 188.00" xmlns="http://www.w3.org/2000/svg" xmlns:xlink="http://www.w3.org/1999/xlink">
<g id="graph0" class="graph" transform="scale(1 1) rotate(0) translate(4 184)">
<title>snakemake_dag</title>
<polygon fill="white" stroke="transparent" points="-4,4 -4,-184 617,-184 617,4 -4,4"/>
<!-- 0 -->
<g id="node1" class="node">
<title>0</title>
<path fill="none" stroke="#d6d856" stroke-width="2" d="M303.5,-36C303.5,-36 273.5,-36 273.5,-36 267.5,-36 261.5,-30 261.5,-24 261.5,-24 261.5,-12 261.5,-12 261.5,-6 267.5,0 273.5,0 273.5,0 303.5,0 303.5,0 309.5,0 315.5,-6 315.5,-12 315.5,-12 315.5,-24 315.5,-24 315.5,-30 309.5,-36 303.5,-36"/>
<text text-anchor="middle" x="288.5" y="-15.5" font-family="sans" font-size="10.00">all</text>
</g>
<!-- 1 -->
<g id="node2" class="node">
<title>1</title>
<path fill="none" stroke="#d85656" stroke-width="2" d="M601,-108C601,-108 488,-108 488,-108 482,-108 476,-102 476,-96 476,-96 476,-84 476,-84 476,-78 482,-72 488,-72 488,-72 601,-72 601,-72 607,-72 613,-78 613,-84 613,-84 613,-96 613,-96 613,-102 607,-108 601,-108"/>
<text text-anchor="middle" x="544.5" y="-93" font-family="sans" font-size="10.00">bwa_mem</text>
<text text-anchor="middle" x="544.5" y="-82" font-family="sans" font-size="10.00">sample: unkown_sample</text>
</g>
<!-- 1&#45;&gt;0 -->
<g id="edge1" class="edge">
<title>1&#45;&gt;0</title>
<path fill="none" stroke="grey" stroke-width="2" d="M482.2,-71.97C433.22,-58.57 366.63,-40.36 325.66,-29.16"/>
<polygon fill="grey" stroke="grey" stroke-width="2" points="326.39,-25.73 315.82,-26.47 324.54,-32.48 326.39,-25.73"/>
</g>
<!-- 2 -->
<g id="node3" class="node">
<title>2</title>
<path fill="none" stroke="#56d8d8" stroke-width="2" d="M277,-180C277,-180 194,-180 194,-180 188,-180 182,-174 182,-168 182,-168 182,-156 182,-156 182,-150 188,-144 194,-144 194,-144 277,-144 277,-144 283,-144 289,-150 289,-156 289,-156 289,-168 289,-168 289,-174 283,-180 277,-180"/>
<text text-anchor="middle" x="235.5" y="-159.5" font-family="sans" font-size="10.00">demultiplex_sabre</text>
</g>
<!-- 2&#45;&gt;1 -->
<g id="edge6" class="edge">
<title>2&#45;&gt;1</title>
<path fill="none" stroke="grey" stroke-width="2" d="M289.07,-146.34C292.25,-145.53 295.42,-144.74 298.5,-144 370.09,-126.73 390.77,-124.45 465.73,-108.37"/>
<polygon fill="grey" stroke="grey" stroke-width="2" points="466.62,-111.76 475.66,-106.23 465.15,-104.91 466.62,-111.76"/>
</g>
<!-- 4 -->
<g id="node5" class="node">
<title>4</title>
<path fill="none" stroke="#d85656" stroke-width="2" d="M89,-108C89,-108 12,-108 12,-108 6,-108 0,-102 0,-96 0,-96 0,-84 0,-84 0,-78 6,-72 12,-72 12,-72 89,-72 89,-72 95,-72 101,-78 101,-84 101,-84 101,-96 101,-96 101,-102 95,-108 89,-108"/>
<text text-anchor="middle" x="50.5" y="-93" font-family="sans" font-size="10.00">bwa_mem</text>
<text text-anchor="middle" x="50.5" y="-82" font-family="sans" font-size="10.00">sample: Sample1</text>
</g>
<!-- 2&#45;&gt;4 -->
<g id="edge8" class="edge">
<title>2&#45;&gt;4</title>
<path fill="none" stroke="grey" stroke-width="2" d="M190.24,-143.88C164.5,-134.14 132.09,-121.87 104.96,-111.61"/>
<polygon fill="grey" stroke="grey" stroke-width="2" points="106.2,-108.33 95.61,-108.07 103.72,-114.88 106.2,-108.33"/>
</g>
<!-- 5 -->
<g id="node6" class="node">
<title>5</title>
<path fill="none" stroke="#d85656" stroke-width="2" d="M208,-108C208,-108 131,-108 131,-108 125,-108 119,-102 119,-96 119,-96 119,-84 119,-84 119,-78 125,-72 131,-72 131,-72 208,-72 208,-72 214,-72 220,-78 220,-84 220,-84 220,-96 220,-96 220,-102 214,-108 208,-108"/>
<text text-anchor="middle" x="169.5" y="-93" font-family="sans" font-size="10.00">bwa_mem</text>
<text text-anchor="middle" x="169.5" y="-82" font-family="sans" font-size="10.00">sample: Sample2</text>
</g>
<!-- 2&#45;&gt;5 -->
<g id="edge10" class="edge">
<title>2&#45;&gt;5</title>
<path fill="none" stroke="grey" stroke-width="2" d="M219.19,-143.7C211.19,-135.22 201.43,-124.86 192.68,-115.58"/>
<polygon fill="grey" stroke="grey" stroke-width="2" points="195.03,-112.98 185.63,-108.1 189.94,-117.78 195.03,-112.98"/>
</g>
<!-- 6 -->
<g id="node7" class="node">
<title>6</title>
<path fill="none" stroke="#d85656" stroke-width="2" d="M327,-108C327,-108 250,-108 250,-108 244,-108 238,-102 238,-96 238,-96 238,-84 238,-84 238,-78 244,-72 250,-72 250,-72 327,-72 327,-72 333,-72 339,-78 339,-84 339,-84 339,-96 339,-96 339,-102 333,-108 327,-108"/>
<text text-anchor="middle" x="288.5" y="-93" font-family="sans" font-size="10.00">bwa_mem</text>
<text text-anchor="middle" x="288.5" y="-82" font-family="sans" font-size="10.00">sample: Sample3</text>
</g>
<!-- 2&#45;&gt;6 -->
<g id="edge12" class="edge">
<title>2&#45;&gt;6</title>
<path fill="none" stroke="grey" stroke-width="2" d="M248.6,-143.7C254.89,-135.39 262.55,-125.28 269.46,-116.14"/>
<polygon fill="grey" stroke="grey" stroke-width="2" points="272.3,-118.19 275.55,-108.1 266.72,-113.96 272.3,-118.19"/>
</g>
<!-- 7 -->
<g id="node8" class="node">
<title>7</title>
<path fill="none" stroke="#d85656" stroke-width="2" d="M446,-108C446,-108 369,-108 369,-108 363,-108 357,-102 357,-96 357,-96 357,-84 357,-84 357,-78 363,-72 369,-72 369,-72 446,-72 446,-72 452,-72 458,-78 458,-84 458,-84 458,-96 458,-96 458,-102 452,-108 446,-108"/>
<text text-anchor="middle" x="407.5" y="-93" font-family="sans" font-size="10.00">bwa_mem</text>
<text text-anchor="middle" x="407.5" y="-82" font-family="sans" font-size="10.00">sample: Sample4</text>
</g>
<!-- 2&#45;&gt;7 -->
<g id="edge14" class="edge">
<title>2&#45;&gt;7</title>
<path fill="none" stroke="grey" stroke-width="2" d="M277.58,-143.88C301.3,-134.22 331.12,-122.09 356.2,-111.88"/>
<polygon fill="grey" stroke="grey" stroke-width="2" points="357.62,-115.08 365.56,-108.07 354.98,-108.6 357.62,-115.08"/>
</g>
<!-- 3 -->
<g id="node4" class="node">
<title>3</title>
<path fill="none" stroke="#59d856" stroke-width="2" d="M364,-180C364,-180 319,-180 319,-180 313,-180 307,-174 307,-168 307,-168 307,-156 307,-156 307,-150 313,-144 319,-144 319,-144 364,-144 364,-144 370,-144 376,-150 376,-156 376,-156 376,-168 376,-168 376,-174 370,-180 364,-180"/>
<text text-anchor="middle" x="341.5" y="-159.5" font-family="sans" font-size="10.00">bwa_index</text>
</g>
<!-- 3&#45;&gt;1 -->
<g id="edge7" class="edge">
<title>3&#45;&gt;1</title>
<path fill="none" stroke="grey" stroke-width="2" d="M376.4,-148.97C406.24,-138.68 449.83,-123.64 485.15,-111.47"/>
<polygon fill="grey" stroke="grey" stroke-width="2" points="486.56,-114.68 494.87,-108.11 484.28,-108.06 486.56,-114.68"/>
</g>
<!-- 3&#45;&gt;4 -->
<g id="edge9" class="edge">
<title>3&#45;&gt;4</title>
<path fill="none" stroke="grey" stroke-width="2" d="M306.63,-146.88C303.56,-145.83 300.49,-144.86 297.5,-144 218.75,-121.44 194.06,-127.3 111.13,-108.26"/>
<polygon fill="grey" stroke="grey" stroke-width="2" points="111.81,-104.83 101.27,-105.95 110.2,-111.64 111.81,-104.83"/>
</g>
<!-- 3&#45;&gt;5 -->
<g id="edge11" class="edge">
<title>3&#45;&gt;5</title>
<path fill="none" stroke="grey" stroke-width="2" d="M306.69,-146.83C282.11,-136.83 248.74,-123.25 221.07,-111.99"/>
<polygon fill="grey" stroke="grey" stroke-width="2" points="222.13,-108.64 211.55,-108.11 219.49,-115.12 222.13,-108.64"/>
</g>
<!-- 3&#45;&gt;6 -->
<g id="edge13" class="edge">
<title>3&#45;&gt;6</title>
<path fill="none" stroke="grey" stroke-width="2" d="M328.4,-143.7C322.11,-135.39 314.45,-125.28 307.54,-116.14"/>
<polygon fill="grey" stroke="grey" stroke-width="2" points="310.28,-113.96 301.45,-108.1 304.7,-118.19 310.28,-113.96"/>
</g>
<!-- 3&#45;&gt;7 -->
<g id="edge15" class="edge">
<title>3&#45;&gt;7</title>
<path fill="none" stroke="grey" stroke-width="2" d="M357.81,-143.7C365.81,-135.22 375.57,-124.86 384.32,-115.58"/>
<polygon fill="grey" stroke="grey" stroke-width="2" points="387.06,-117.78 391.37,-108.1 381.97,-112.98 387.06,-117.78"/>
</g>
<!-- 4&#45;&gt;0 -->
<g id="edge2" class="edge">
<title>4&#45;&gt;0</title>
<path fill="none" stroke="grey" stroke-width="2" d="M101.27,-74.07C146.45,-60.78 211.45,-41.66 251.77,-29.8"/>
<polygon fill="grey" stroke="grey" stroke-width="2" points="252.86,-33.13 261.46,-26.95 250.88,-26.42 252.86,-33.13"/>
</g>
<!-- 5&#45;&gt;0 -->
<g id="edge3" class="edge">
<title>5&#45;&gt;0</title>
<path fill="none" stroke="grey" stroke-width="2" d="M198.61,-71.88C214.9,-62.29 235.34,-50.27 252.62,-40.11"/>
<polygon fill="grey" stroke="grey" stroke-width="2" points="254.48,-43.07 261.32,-34.99 250.93,-37.04 254.48,-43.07"/>
</g>
<!-- 6&#45;&gt;0 -->
<g id="edge4" class="edge">
<title>6&#45;&gt;0</title>
<path fill="none" stroke="grey" stroke-width="2" d="M288.5,-71.7C288.5,-63.98 288.5,-54.71 288.5,-46.11"/>
<polygon fill="grey" stroke="grey" stroke-width="2" points="292,-46.1 288.5,-36.1 285,-46.1 292,-46.1"/>
</g>
<!-- 7&#45;&gt;0 -->
<g id="edge5" class="edge">
<title>7&#45;&gt;0</title>
<path fill="none" stroke="grey" stroke-width="2" d="M378.39,-71.88C362.1,-62.29 341.66,-50.27 324.38,-40.11"/>
<polygon fill="grey" stroke="grey" stroke-width="2" points="326.07,-37.04 315.68,-34.99 322.52,-43.07 326.07,-37.04"/>
</g>
</g>
</svg>
