<?xml version="1.0" encoding="UTF-8" standalone="no"?>
<!DOCTYPE svg PUBLIC "-//W3C//DTD SVG 1.1//EN"
 "http://www.w3.org/Graphics/SVG/1.1/DTD/svg11.dtd">
<!-- Generated by graphviz version 2.43.0 (0)
 -->
<!-- Title: snakemake_dag Pages: 1 -->
<svg width="708pt" height="260pt"
 viewBox="0.00 0.00 708.00 260.00" xmlns="http://www.w3.org/2000/svg" xmlns:xlink="http://www.w3.org/1999/xlink">
<g id="graph0" class="graph" transform="scale(1 1) rotate(0) translate(4 256)">
<title>snakemake_dag</title>
<polygon fill="white" stroke="transparent" points="-4,4 -4,-256 704,-256 704,4 -4,4"/>
<!-- 0 -->
<g id="node1" class="node">
<title>0</title>
<path fill="none" stroke="#d85656" stroke-width="2" d="M330.5,-36C330.5,-36 300.5,-36 300.5,-36 294.5,-36 288.5,-30 288.5,-24 288.5,-24 288.5,-12 288.5,-12 288.5,-6 294.5,0 300.5,0 300.5,0 330.5,0 330.5,0 336.5,0 342.5,-6 342.5,-12 342.5,-12 342.5,-24 342.5,-24 342.5,-30 336.5,-36 330.5,-36"/>
<text text-anchor="middle" x="315.5" y="-15.5" font-family="sans" font-size="10.00">all</text>
</g>
<!-- 1 -->
<g id="node2" class="node">
<title>1</title>
<path fill="none" stroke="#56d88a" stroke-width="2" d="M337.5,-108C337.5,-108 293.5,-108 293.5,-108 287.5,-108 281.5,-102 281.5,-96 281.5,-96 281.5,-84 281.5,-84 281.5,-78 287.5,-72 293.5,-72 293.5,-72 337.5,-72 337.5,-72 343.5,-72 349.5,-78 349.5,-84 349.5,-84 349.5,-96 349.5,-96 349.5,-102 343.5,-108 337.5,-108"/>
<text text-anchor="middle" x="315.5" y="-87.5" font-family="sans" font-size="10.00">bwa_mem</text>
</g>
<!-- 1&#45;&gt;0 -->
<g id="edge1" class="edge">
<title>1&#45;&gt;0</title>
<path fill="none" stroke="grey" stroke-width="2" d="M315.5,-71.7C315.5,-63.98 315.5,-54.71 315.5,-46.11"/>
<polygon fill="grey" stroke="grey" stroke-width="2" points="319,-46.1 315.5,-36.1 312,-46.1 319,-46.1"/>
</g>
<!-- 2 -->
<g id="node3" class="node">
<title>2</title>
<path fill="none" stroke="#88d856" stroke-width="2" d="M450,-180C450,-180 337,-180 337,-180 331,-180 325,-174 325,-168 325,-168 325,-156 325,-156 325,-150 331,-144 337,-144 337,-144 450,-144 450,-144 456,-144 462,-150 462,-156 462,-156 462,-168 462,-168 462,-174 456,-180 450,-180"/>
<text text-anchor="middle" x="393.5" y="-165" font-family="sans" font-size="10.00">trim_galore</text>
<text text-anchor="middle" x="393.5" y="-154" font-family="sans" font-size="10.00">sample: unkown_sample</text>
</g>
<!-- 2&#45;&gt;1 -->
<g id="edge6" class="edge">
<title>2&#45;&gt;1</title>
<path fill="none" stroke="grey" stroke-width="2" d="M374.22,-143.7C364.58,-135.05 352.77,-124.45 342.27,-115.03"/>
<polygon fill="grey" stroke="grey" stroke-width="2" points="344.34,-112.18 334.56,-108.1 339.66,-117.39 344.34,-112.18"/>
</g>
<!-- 3 -->
<g id="node4" class="node">
<title>3</title>
<path fill="none" stroke="#d8bc56" stroke-width="2" d="M435,-252C435,-252 352,-252 352,-252 346,-252 340,-246 340,-240 340,-240 340,-228 340,-228 340,-222 346,-216 352,-216 352,-216 435,-216 435,-216 441,-216 447,-222 447,-228 447,-228 447,-240 447,-240 447,-246 441,-252 435,-252"/>
<text text-anchor="middle" x="393.5" y="-231.5" font-family="sans" font-size="10.00">demultiplex_sabre</text>
</g>
<!-- 3&#45;&gt;2 -->
<g id="edge8" class="edge">
<title>3&#45;&gt;2</title>
<path fill="none" stroke="grey" stroke-width="2" d="M393.5,-215.7C393.5,-207.98 393.5,-198.71 393.5,-190.11"/>
<polygon fill="grey" stroke="grey" stroke-width="2" points="397,-190.1 393.5,-180.1 390,-190.1 397,-190.1"/>
</g>
<!-- 6 -->
<g id="node7" class="node">
<title>6</title>
<path fill="none" stroke="#88d856" stroke-width="2" d="M569,-180C569,-180 492,-180 492,-180 486,-180 480,-174 480,-168 480,-168 480,-156 480,-156 480,-150 486,-144 492,-144 492,-144 569,-144 569,-144 575,-144 581,-150 581,-156 581,-156 581,-168 581,-168 581,-174 575,-180 569,-180"/>
<text text-anchor="middle" x="530.5" y="-165" font-family="sans" font-size="10.00">trim_galore</text>
<text text-anchor="middle" x="530.5" y="-154" font-family="sans" font-size="10.00">sample: Sample1</text>
</g>
<!-- 3&#45;&gt;6 -->
<g id="edge11" class="edge">
<title>3&#45;&gt;6</title>
<path fill="none" stroke="grey" stroke-width="2" d="M427.01,-215.88C445.34,-206.51 468.24,-194.81 487.83,-184.8"/>
<polygon fill="grey" stroke="grey" stroke-width="2" points="489.54,-187.86 496.86,-180.19 486.36,-181.62 489.54,-187.86"/>
</g>
<!-- 8 -->
<g id="node9" class="node">
<title>8</title>
<path fill="none" stroke="#88d856" stroke-width="2" d="M688,-180C688,-180 611,-180 611,-180 605,-180 599,-174 599,-168 599,-168 599,-156 599,-156 599,-150 605,-144 611,-144 611,-144 688,-144 688,-144 694,-144 700,-150 700,-156 700,-156 700,-168 700,-168 700,-174 694,-180 688,-180"/>
<text text-anchor="middle" x="649.5" y="-165" font-family="sans" font-size="10.00">trim_galore</text>
<text text-anchor="middle" x="649.5" y="-154" font-family="sans" font-size="10.00">sample: Sample2</text>
</g>
<!-- 3&#45;&gt;8 -->
<g id="edge14" class="edge">
<title>3&#45;&gt;8</title>
<path fill="none" stroke="grey" stroke-width="2" d="M447.08,-218.86C484.49,-208.92 535.84,-195.16 589.33,-180.31"/>
<polygon fill="grey" stroke="grey" stroke-width="2" points="590.29,-183.67 598.99,-177.62 588.41,-176.93 590.29,-183.67"/>
</g>
<!-- 10 -->
<g id="node11" class="node">
<title>10</title>
<path fill="none" stroke="#88d856" stroke-width="2" d="M89,-180C89,-180 12,-180 12,-180 6,-180 0,-174 0,-168 0,-168 0,-156 0,-156 0,-150 6,-144 12,-144 12,-144 89,-144 89,-144 95,-144 101,-150 101,-156 101,-156 101,-168 101,-168 101,-174 95,-180 89,-180"/>
<text text-anchor="middle" x="50.5" y="-165" font-family="sans" font-size="10.00">trim_galore</text>
<text text-anchor="middle" x="50.5" y="-154" font-family="sans" font-size="10.00">sample: Sample3</text>
</g>
<!-- 3&#45;&gt;10 -->
<g id="edge17" class="edge">
<title>3&#45;&gt;10</title>
<path fill="none" stroke="grey" stroke-width="2" d="M340,-224.47C284.98,-215.37 196.68,-199.83 111.04,-180.01"/>
<polygon fill="grey" stroke="grey" stroke-width="2" points="111.69,-176.57 101.15,-177.7 110.1,-183.39 111.69,-176.57"/>
</g>
<!-- 12 -->
<g id="node13" class="node">
<title>12</title>
<path fill="none" stroke="#88d856" stroke-width="2" d="M208,-180C208,-180 131,-180 131,-180 125,-180 119,-174 119,-168 119,-168 119,-156 119,-156 119,-150 125,-144 131,-144 131,-144 208,-144 208,-144 214,-144 220,-150 220,-156 220,-156 220,-168 220,-168 220,-174 214,-180 208,-180"/>
<text text-anchor="middle" x="169.5" y="-165" font-family="sans" font-size="10.00">trim_galore</text>
<text text-anchor="middle" x="169.5" y="-154" font-family="sans" font-size="10.00">sample: Sample4</text>
</g>
<!-- 3&#45;&gt;12 -->
<g id="edge20" class="edge">
<title>3&#45;&gt;12</title>
<path fill="none" stroke="grey" stroke-width="2" d="M339.85,-216.23C306.74,-205.89 264.21,-192.6 229.92,-181.88"/>
<polygon fill="grey" stroke="grey" stroke-width="2" points="230.62,-178.43 220.03,-178.79 228.53,-185.11 230.62,-178.43"/>
</g>
<!-- 4 -->
<g id="node5" class="node">
<title>4</title>
<path fill="none" stroke="#56c1d8" stroke-width="2" d="M295,-180C295,-180 250,-180 250,-180 244,-180 238,-174 238,-168 238,-168 238,-156 238,-156 238,-150 244,-144 250,-144 250,-144 295,-144 295,-144 301,-144 307,-150 307,-156 307,-156 307,-168 307,-168 307,-174 301,-180 295,-180"/>
<text text-anchor="middle" x="272.5" y="-159.5" font-family="sans" font-size="10.00">bwa_index</text>
</g>
<!-- 4&#45;&gt;1 -->
<g id="edge7" class="edge">
<title>4&#45;&gt;1</title>
<path fill="none" stroke="grey" stroke-width="2" d="M283.13,-143.7C288.13,-135.56 294.19,-125.69 299.71,-116.7"/>
<polygon fill="grey" stroke="grey" stroke-width="2" points="302.74,-118.46 304.99,-108.1 296.78,-114.79 302.74,-118.46"/>
</g>
<!-- 5 -->
<g id="node6" class="node">
<title>5</title>
<path fill="none" stroke="#56d88a" stroke-width="2" d="M423.5,-108C423.5,-108 379.5,-108 379.5,-108 373.5,-108 367.5,-102 367.5,-96 367.5,-96 367.5,-84 367.5,-84 367.5,-78 373.5,-72 379.5,-72 379.5,-72 423.5,-72 423.5,-72 429.5,-72 435.5,-78 435.5,-84 435.5,-84 435.5,-96 435.5,-96 435.5,-102 429.5,-108 423.5,-108"/>
<text text-anchor="middle" x="401.5" y="-87.5" font-family="sans" font-size="10.00">bwa_mem</text>
</g>
<!-- 4&#45;&gt;5 -->
<g id="edge10" class="edge">
<title>4&#45;&gt;5</title>
<path fill="none" stroke="grey" stroke-width="2" d="M304.06,-143.88C321.16,-134.6 342.48,-123.03 360.82,-113.08"/>
<polygon fill="grey" stroke="grey" stroke-width="2" points="362.7,-116.04 369.82,-108.19 359.36,-109.88 362.7,-116.04"/>
</g>
<!-- 7 -->
<g id="node8" class="node">
<title>7</title>
<path fill="none" stroke="#56d88a" stroke-width="2" d="M509.5,-108C509.5,-108 465.5,-108 465.5,-108 459.5,-108 453.5,-102 453.5,-96 453.5,-96 453.5,-84 453.5,-84 453.5,-78 459.5,-72 465.5,-72 465.5,-72 509.5,-72 509.5,-72 515.5,-72 521.5,-78 521.5,-84 521.5,-84 521.5,-96 521.5,-96 521.5,-102 515.5,-108 509.5,-108"/>
<text text-anchor="middle" x="487.5" y="-87.5" font-family="sans" font-size="10.00">bwa_mem</text>
</g>
<!-- 4&#45;&gt;7 -->
<g id="edge13" class="edge">
<title>4&#45;&gt;7</title>
<path fill="none" stroke="grey" stroke-width="2" d="M307.46,-147.15C310.5,-146.05 313.55,-144.98 316.5,-144 369.72,-126.28 386.78,-126.78 443.84,-108.04"/>
<polygon fill="grey" stroke="grey" stroke-width="2" points="444.97,-111.36 453.35,-104.87 442.76,-104.72 444.97,-111.36"/>
</g>
<!-- 9 -->
<g id="node10" class="node">
<title>9</title>
<path fill="none" stroke="#56d88a" stroke-width="2" d="M165.5,-108C165.5,-108 121.5,-108 121.5,-108 115.5,-108 109.5,-102 109.5,-96 109.5,-96 109.5,-84 109.5,-84 109.5,-78 115.5,-72 121.5,-72 121.5,-72 165.5,-72 165.5,-72 171.5,-72 177.5,-78 177.5,-84 177.5,-84 177.5,-96 177.5,-96 177.5,-102 171.5,-108 165.5,-108"/>
<text text-anchor="middle" x="143.5" y="-87.5" font-family="sans" font-size="10.00">bwa_mem</text>
</g>
<!-- 4&#45;&gt;9 -->
<g id="edge16" class="edge">
<title>4&#45;&gt;9</title>
<path fill="none" stroke="grey" stroke-width="2" d="M240.94,-143.88C223.84,-134.6 202.52,-123.03 184.18,-113.08"/>
<polygon fill="grey" stroke="grey" stroke-width="2" points="185.64,-109.88 175.18,-108.19 182.3,-116.04 185.64,-109.88"/>
</g>
<!-- 11 -->
<g id="node12" class="node">
<title>11</title>
<path fill="none" stroke="#56d88a" stroke-width="2" d="M251.5,-108C251.5,-108 207.5,-108 207.5,-108 201.5,-108 195.5,-102 195.5,-96 195.5,-96 195.5,-84 195.5,-84 195.5,-78 201.5,-72 207.5,-72 207.5,-72 251.5,-72 251.5,-72 257.5,-72 263.5,-78 263.5,-84 263.5,-84 263.5,-96 263.5,-96 263.5,-102 257.5,-108 251.5,-108"/>
<text text-anchor="middle" x="229.5" y="-87.5" font-family="sans" font-size="10.00">bwa_mem</text>
</g>
<!-- 4&#45;&gt;11 -->
<g id="edge19" class="edge">
<title>4&#45;&gt;11</title>
<path fill="none" stroke="grey" stroke-width="2" d="M261.87,-143.7C256.87,-135.56 250.81,-125.69 245.29,-116.7"/>
<polygon fill="grey" stroke="grey" stroke-width="2" points="248.22,-114.79 240.01,-108.1 242.26,-118.46 248.22,-114.79"/>
</g>
<!-- 5&#45;&gt;0 -->
<g id="edge2" class="edge">
<title>5&#45;&gt;0</title>
<path fill="none" stroke="grey" stroke-width="2" d="M380.24,-71.7C369.41,-62.88 356.08,-52.03 344.34,-42.47"/>
<polygon fill="grey" stroke="grey" stroke-width="2" points="346.48,-39.7 336.51,-36.1 342.06,-45.13 346.48,-39.7"/>
</g>
<!-- 6&#45;&gt;5 -->
<g id="edge9" class="edge">
<title>6&#45;&gt;5</title>
<path fill="none" stroke="grey" stroke-width="2" d="M498.94,-143.88C481.84,-134.6 460.52,-123.03 442.18,-113.08"/>
<polygon fill="grey" stroke="grey" stroke-width="2" points="443.64,-109.88 433.18,-108.19 440.3,-116.04 443.64,-109.88"/>
</g>
<!-- 7&#45;&gt;0 -->
<g id="edge3" class="edge">
<title>7&#45;&gt;0</title>
<path fill="none" stroke="grey" stroke-width="2" d="M453.11,-75C423.95,-63.14 382.24,-46.16 352.4,-34.02"/>
<polygon fill="grey" stroke="grey" stroke-width="2" points="353.35,-30.62 342.77,-30.1 350.71,-37.11 353.35,-30.62"/>
</g>
<!-- 8&#45;&gt;7 -->
<g id="edge12" class="edge">
<title>8&#45;&gt;7</title>
<path fill="none" stroke="grey" stroke-width="2" d="M609.87,-143.88C585.97,-133.55 555.51,-120.38 530.95,-109.77"/>
<polygon fill="grey" stroke="grey" stroke-width="2" points="532.08,-106.45 521.51,-105.7 529.31,-112.88 532.08,-106.45"/>
</g>
<!-- 9&#45;&gt;0 -->
<g id="edge4" class="edge">
<title>9&#45;&gt;0</title>
<path fill="none" stroke="grey" stroke-width="2" d="M177.89,-75C207.05,-63.14 248.76,-46.16 278.6,-34.02"/>
<polygon fill="grey" stroke="grey" stroke-width="2" points="280.29,-37.11 288.23,-30.1 277.65,-30.62 280.29,-37.11"/>
</g>
<!-- 10&#45;&gt;9 -->
<g id="edge15" class="edge">
<title>10&#45;&gt;9</title>
<path fill="none" stroke="grey" stroke-width="2" d="M73.49,-143.7C85.31,-134.8 99.89,-123.82 112.68,-114.2"/>
<polygon fill="grey" stroke="grey" stroke-width="2" points="114.89,-116.91 120.78,-108.1 110.68,-111.32 114.89,-116.91"/>
</g>
<!-- 11&#45;&gt;0 -->
<g id="edge5" class="edge">
<title>11&#45;&gt;0</title>
<path fill="none" stroke="grey" stroke-width="2" d="M250.76,-71.7C261.59,-62.88 274.92,-52.03 286.66,-42.47"/>
<polygon fill="grey" stroke="grey" stroke-width="2" points="288.94,-45.13 294.49,-36.1 284.52,-39.7 288.94,-45.13"/>
</g>
<!-- 12&#45;&gt;11 -->
<g id="edge18" class="edge">
<title>12&#45;&gt;11</title>
<path fill="none" stroke="grey" stroke-width="2" d="M184.33,-143.7C191.52,-135.3 200.3,-125.07 208.19,-115.86"/>
<polygon fill="grey" stroke="grey" stroke-width="2" points="210.99,-117.97 214.84,-108.1 205.67,-113.42 210.99,-117.97"/>
</g>
</g>
</svg>
